<mxfile host="app.diagrams.net" modified="2021-09-16T22:00:29.876Z" agent="5.0 (Windows NT 10.0; Win64; x64) AppleWebKit/537.36 (KHTML, like Gecko) Chrome/92.0.4515.159 Safari/537.36 OPR/78.0.4093.184" etag="SeDWV0V2AJ0SbeHSngn7" version="15.1.4" type="github">
  <diagram id="R2lEEEUBdFMjLlhIrx00" name="Page-1">
    <mxGraphModel dx="1422" dy="764" grid="1" gridSize="10" guides="1" tooltips="1" connect="1" arrows="1" fold="1" page="1" pageScale="1" pageWidth="15000" pageHeight="100000" math="0" shadow="0" extFonts="Permanent Marker^https://fonts.googleapis.com/css?family=Permanent+Marker">
      <root>
        <mxCell id="0" />
        <mxCell id="1" parent="0" />
        <mxCell id="_eQ42IoMCjJthv77Kmsl-1" value="VIAJE" style="shape=table;startSize=30;container=1;collapsible=1;childLayout=tableLayout;fixedRows=1;rowLines=0;fontStyle=1;align=center;resizeLast=1;" vertex="1" parent="1">
          <mxGeometry x="40" y="70" width="250" height="150" as="geometry" />
        </mxCell>
        <mxCell id="_eQ42IoMCjJthv77Kmsl-2" value="" style="shape=partialRectangle;collapsible=0;dropTarget=0;pointerEvents=0;fillColor=none;points=[[0,0.5],[1,0.5]];portConstraint=eastwest;top=0;left=0;right=0;bottom=1;" vertex="1" parent="_eQ42IoMCjJthv77Kmsl-1">
          <mxGeometry y="30" width="250" height="30" as="geometry" />
        </mxCell>
        <mxCell id="_eQ42IoMCjJthv77Kmsl-3" value="" style="shape=partialRectangle;overflow=hidden;connectable=0;fillColor=none;top=0;left=0;bottom=0;right=0;fontStyle=1;" vertex="1" parent="_eQ42IoMCjJthv77Kmsl-2">
          <mxGeometry width="30" height="30" as="geometry" />
        </mxCell>
        <mxCell id="_eQ42IoMCjJthv77Kmsl-4" value="" style="shape=partialRectangle;overflow=hidden;connectable=0;fillColor=none;top=0;left=0;bottom=0;right=0;align=left;spacingLeft=6;fontStyle=5;" vertex="1" parent="_eQ42IoMCjJthv77Kmsl-2">
          <mxGeometry x="30" width="220" height="30" as="geometry" />
        </mxCell>
        <mxCell id="_eQ42IoMCjJthv77Kmsl-5" value="" style="shape=partialRectangle;collapsible=0;dropTarget=0;pointerEvents=0;fillColor=none;points=[[0,0.5],[1,0.5]];portConstraint=eastwest;top=0;left=0;right=0;bottom=0;" vertex="1" parent="_eQ42IoMCjJthv77Kmsl-1">
          <mxGeometry y="60" width="250" height="30" as="geometry" />
        </mxCell>
        <mxCell id="_eQ42IoMCjJthv77Kmsl-6" value="" style="shape=partialRectangle;overflow=hidden;connectable=0;fillColor=none;top=0;left=0;bottom=0;right=0;" vertex="1" parent="_eQ42IoMCjJthv77Kmsl-5">
          <mxGeometry width="30" height="30" as="geometry" />
        </mxCell>
        <mxCell id="_eQ42IoMCjJthv77Kmsl-7" value="VIAJE_FECHA_INICIO" style="shape=partialRectangle;overflow=hidden;connectable=0;fillColor=none;top=0;left=0;bottom=0;right=0;align=left;spacingLeft=6;" vertex="1" parent="_eQ42IoMCjJthv77Kmsl-5">
          <mxGeometry x="30" width="220" height="30" as="geometry" />
        </mxCell>
        <mxCell id="_eQ42IoMCjJthv77Kmsl-17" value="" style="shape=partialRectangle;collapsible=0;dropTarget=0;pointerEvents=0;fillColor=none;points=[[0,0.5],[1,0.5]];portConstraint=eastwest;top=0;left=0;right=0;bottom=0;" vertex="1" parent="_eQ42IoMCjJthv77Kmsl-1">
          <mxGeometry y="90" width="250" height="30" as="geometry" />
        </mxCell>
        <mxCell id="_eQ42IoMCjJthv77Kmsl-18" value="" style="shape=partialRectangle;overflow=hidden;connectable=0;fillColor=none;top=0;left=0;bottom=0;right=0;" vertex="1" parent="_eQ42IoMCjJthv77Kmsl-17">
          <mxGeometry width="30" height="30" as="geometry" />
        </mxCell>
        <mxCell id="_eQ42IoMCjJthv77Kmsl-19" value="VIAJE_FECHA_FIN" style="shape=partialRectangle;overflow=hidden;connectable=0;fillColor=none;top=0;left=0;bottom=0;right=0;align=left;spacingLeft=6;" vertex="1" parent="_eQ42IoMCjJthv77Kmsl-17">
          <mxGeometry x="30" width="220" height="30" as="geometry" />
        </mxCell>
        <mxCell id="_eQ42IoMCjJthv77Kmsl-20" value="" style="shape=partialRectangle;collapsible=0;dropTarget=0;pointerEvents=0;fillColor=none;points=[[0,0.5],[1,0.5]];portConstraint=eastwest;top=0;left=0;right=0;bottom=0;" vertex="1" parent="_eQ42IoMCjJthv77Kmsl-1">
          <mxGeometry y="120" width="250" height="30" as="geometry" />
        </mxCell>
        <mxCell id="_eQ42IoMCjJthv77Kmsl-21" value="" style="shape=partialRectangle;overflow=hidden;connectable=0;fillColor=none;top=0;left=0;bottom=0;right=0;" vertex="1" parent="_eQ42IoMCjJthv77Kmsl-20">
          <mxGeometry width="30" height="30" as="geometry" />
        </mxCell>
        <mxCell id="_eQ42IoMCjJthv77Kmsl-22" value="VIAJE_CONSUMO_COMBUSTIBLE" style="shape=partialRectangle;overflow=hidden;connectable=0;fillColor=none;top=0;left=0;bottom=0;right=0;align=left;spacingLeft=6;" vertex="1" parent="_eQ42IoMCjJthv77Kmsl-20">
          <mxGeometry x="30" width="220" height="30" as="geometry" />
        </mxCell>
        <mxCell id="_eQ42IoMCjJthv77Kmsl-23" value="Orders" style="shape=table;startSize=30;container=1;collapsible=1;childLayout=tableLayout;fixedRows=1;rowLines=0;fontStyle=1;align=center;resizeLast=1;" vertex="1" parent="1">
          <mxGeometry x="970" y="70" width="250" height="130" as="geometry" />
        </mxCell>
        <mxCell id="_eQ42IoMCjJthv77Kmsl-24" value="" style="shape=partialRectangle;collapsible=0;dropTarget=0;pointerEvents=0;fillColor=none;points=[[0,0.5],[1,0.5]];portConstraint=eastwest;top=0;left=0;right=0;bottom=1;" vertex="1" parent="_eQ42IoMCjJthv77Kmsl-23">
          <mxGeometry y="30" width="250" height="30" as="geometry" />
        </mxCell>
        <mxCell id="_eQ42IoMCjJthv77Kmsl-25" value="PK" style="shape=partialRectangle;overflow=hidden;connectable=0;fillColor=none;top=0;left=0;bottom=0;right=0;fontStyle=1;" vertex="1" parent="_eQ42IoMCjJthv77Kmsl-24">
          <mxGeometry width="30" height="30" as="geometry" />
        </mxCell>
        <mxCell id="_eQ42IoMCjJthv77Kmsl-26" value="order_idÂ int NOT NULL " style="shape=partialRectangle;overflow=hidden;connectable=0;fillColor=none;top=0;left=0;bottom=0;right=0;align=left;spacingLeft=6;fontStyle=5;" vertex="1" parent="_eQ42IoMCjJthv77Kmsl-24">
          <mxGeometry x="30" width="220" height="30" as="geometry" />
        </mxCell>
        <mxCell id="_eQ42IoMCjJthv77Kmsl-27" value="" style="shape=partialRectangle;collapsible=0;dropTarget=0;pointerEvents=0;fillColor=none;points=[[0,0.5],[1,0.5]];portConstraint=eastwest;top=0;left=0;right=0;bottom=0;" vertex="1" parent="_eQ42IoMCjJthv77Kmsl-23">
          <mxGeometry y="60" width="250" height="30" as="geometry" />
        </mxCell>
        <mxCell id="_eQ42IoMCjJthv77Kmsl-28" value="FK1" style="shape=partialRectangle;overflow=hidden;connectable=0;fillColor=none;top=0;left=0;bottom=0;right=0;" vertex="1" parent="_eQ42IoMCjJthv77Kmsl-27">
          <mxGeometry width="30" height="30" as="geometry" />
        </mxCell>
        <mxCell id="_eQ42IoMCjJthv77Kmsl-29" value="customer_id int NOT NULL" style="shape=partialRectangle;overflow=hidden;connectable=0;fillColor=none;top=0;left=0;bottom=0;right=0;align=left;spacingLeft=6;" vertex="1" parent="_eQ42IoMCjJthv77Kmsl-27">
          <mxGeometry x="30" width="220" height="30" as="geometry" />
        </mxCell>
        <mxCell id="_eQ42IoMCjJthv77Kmsl-30" value="" style="shape=partialRectangle;collapsible=0;dropTarget=0;pointerEvents=0;fillColor=none;points=[[0,0.5],[1,0.5]];portConstraint=eastwest;top=0;left=0;right=0;bottom=0;" vertex="1" parent="_eQ42IoMCjJthv77Kmsl-23">
          <mxGeometry y="90" width="250" height="30" as="geometry" />
        </mxCell>
        <mxCell id="_eQ42IoMCjJthv77Kmsl-31" value="" style="shape=partialRectangle;overflow=hidden;connectable=0;fillColor=none;top=0;left=0;bottom=0;right=0;" vertex="1" parent="_eQ42IoMCjJthv77Kmsl-30">
          <mxGeometry width="30" height="30" as="geometry" />
        </mxCell>
        <mxCell id="_eQ42IoMCjJthv77Kmsl-32" value="order_date date NOT NULL" style="shape=partialRectangle;overflow=hidden;connectable=0;fillColor=none;top=0;left=0;bottom=0;right=0;align=left;spacingLeft=6;" vertex="1" parent="_eQ42IoMCjJthv77Kmsl-30">
          <mxGeometry x="30" width="220" height="30" as="geometry" />
        </mxCell>
        <mxCell id="_eQ42IoMCjJthv77Kmsl-33" value="PAQUETE" style="shape=table;startSize=30;container=1;collapsible=1;childLayout=tableLayout;fixedRows=1;rowLines=0;fontStyle=1;align=center;resizeLast=1;" vertex="1" parent="1">
          <mxGeometry x="340" y="70" width="250" height="280" as="geometry" />
        </mxCell>
        <mxCell id="_eQ42IoMCjJthv77Kmsl-34" value="" style="shape=partialRectangle;collapsible=0;dropTarget=0;pointerEvents=0;fillColor=none;points=[[0,0.5],[1,0.5]];portConstraint=eastwest;top=0;left=0;right=0;bottom=1;" vertex="1" parent="_eQ42IoMCjJthv77Kmsl-33">
          <mxGeometry y="30" width="250" height="30" as="geometry" />
        </mxCell>
        <mxCell id="_eQ42IoMCjJthv77Kmsl-35" value="" style="shape=partialRectangle;overflow=hidden;connectable=0;fillColor=none;top=0;left=0;bottom=0;right=0;fontStyle=1;" vertex="1" parent="_eQ42IoMCjJthv77Kmsl-34">
          <mxGeometry width="30" height="30" as="geometry" />
        </mxCell>
        <mxCell id="_eQ42IoMCjJthv77Kmsl-36" value="" style="shape=partialRectangle;overflow=hidden;connectable=0;fillColor=none;top=0;left=0;bottom=0;right=0;align=left;spacingLeft=6;fontStyle=5;" vertex="1" parent="_eQ42IoMCjJthv77Kmsl-34">
          <mxGeometry x="30" width="220" height="30" as="geometry" />
        </mxCell>
        <mxCell id="_eQ42IoMCjJthv77Kmsl-37" value="" style="shape=partialRectangle;collapsible=0;dropTarget=0;pointerEvents=0;fillColor=none;points=[[0,0.5],[1,0.5]];portConstraint=eastwest;top=0;left=0;right=0;bottom=0;" vertex="1" parent="_eQ42IoMCjJthv77Kmsl-33">
          <mxGeometry y="60" width="250" height="30" as="geometry" />
        </mxCell>
        <mxCell id="_eQ42IoMCjJthv77Kmsl-38" value="" style="shape=partialRectangle;overflow=hidden;connectable=0;fillColor=none;top=0;left=0;bottom=0;right=0;" vertex="1" parent="_eQ42IoMCjJthv77Kmsl-37">
          <mxGeometry width="30" height="30" as="geometry" />
        </mxCell>
        <mxCell id="_eQ42IoMCjJthv77Kmsl-39" value="PAQUETE_CANTIDAD" style="shape=partialRectangle;overflow=hidden;connectable=0;fillColor=none;top=0;left=0;bottom=0;right=0;align=left;spacingLeft=6;" vertex="1" parent="_eQ42IoMCjJthv77Kmsl-37">
          <mxGeometry x="30" width="220" height="30" as="geometry" />
        </mxCell>
        <mxCell id="_eQ42IoMCjJthv77Kmsl-40" value="" style="shape=partialRectangle;collapsible=0;dropTarget=0;pointerEvents=0;fillColor=none;points=[[0,0.5],[1,0.5]];portConstraint=eastwest;top=0;left=0;right=0;bottom=0;" vertex="1" parent="_eQ42IoMCjJthv77Kmsl-33">
          <mxGeometry y="90" width="250" height="30" as="geometry" />
        </mxCell>
        <mxCell id="_eQ42IoMCjJthv77Kmsl-41" value="" style="shape=partialRectangle;overflow=hidden;connectable=0;fillColor=none;top=0;left=0;bottom=0;right=0;" vertex="1" parent="_eQ42IoMCjJthv77Kmsl-40">
          <mxGeometry width="30" height="30" as="geometry" />
        </mxCell>
        <mxCell id="_eQ42IoMCjJthv77Kmsl-42" value="PAQUETE_DESCIPCION" style="shape=partialRectangle;overflow=hidden;connectable=0;fillColor=none;top=0;left=0;bottom=0;right=0;align=left;spacingLeft=6;" vertex="1" parent="_eQ42IoMCjJthv77Kmsl-40">
          <mxGeometry x="30" width="220" height="30" as="geometry" />
        </mxCell>
        <mxCell id="_eQ42IoMCjJthv77Kmsl-43" value="" style="shape=partialRectangle;collapsible=0;dropTarget=0;pointerEvents=0;fillColor=none;points=[[0,0.5],[1,0.5]];portConstraint=eastwest;top=0;left=0;right=0;bottom=0;" vertex="1" parent="_eQ42IoMCjJthv77Kmsl-33">
          <mxGeometry y="120" width="250" height="30" as="geometry" />
        </mxCell>
        <mxCell id="_eQ42IoMCjJthv77Kmsl-44" value="" style="shape=partialRectangle;overflow=hidden;connectable=0;fillColor=none;top=0;left=0;bottom=0;right=0;" vertex="1" parent="_eQ42IoMCjJthv77Kmsl-43">
          <mxGeometry width="30" height="30" as="geometry" />
        </mxCell>
        <mxCell id="_eQ42IoMCjJthv77Kmsl-45" value="PAQUETE_PESO_MAX" style="shape=partialRectangle;overflow=hidden;connectable=0;fillColor=none;top=0;left=0;bottom=0;right=0;align=left;spacingLeft=6;" vertex="1" parent="_eQ42IoMCjJthv77Kmsl-43">
          <mxGeometry x="30" width="220" height="30" as="geometry" />
        </mxCell>
        <mxCell id="_eQ42IoMCjJthv77Kmsl-46" value="" style="shape=partialRectangle;collapsible=0;dropTarget=0;pointerEvents=0;fillColor=none;points=[[0,0.5],[1,0.5]];portConstraint=eastwest;top=0;left=0;right=0;bottom=0;" vertex="1" parent="_eQ42IoMCjJthv77Kmsl-33">
          <mxGeometry y="150" width="250" height="40" as="geometry" />
        </mxCell>
        <mxCell id="_eQ42IoMCjJthv77Kmsl-47" value="" style="shape=partialRectangle;overflow=hidden;connectable=0;fillColor=none;top=0;left=0;bottom=0;right=0;" vertex="1" parent="_eQ42IoMCjJthv77Kmsl-46">
          <mxGeometry width="30" height="40" as="geometry" />
        </mxCell>
        <mxCell id="_eQ42IoMCjJthv77Kmsl-48" value="PAQUETE_ALTO_MAX" style="shape=partialRectangle;overflow=hidden;connectable=0;fillColor=none;top=0;left=0;bottom=0;right=0;align=left;spacingLeft=6;" vertex="1" parent="_eQ42IoMCjJthv77Kmsl-46">
          <mxGeometry x="30" width="220" height="40" as="geometry" />
        </mxCell>
        <mxCell id="_eQ42IoMCjJthv77Kmsl-49" value="" style="shape=partialRectangle;collapsible=0;dropTarget=0;pointerEvents=0;fillColor=none;points=[[0,0.5],[1,0.5]];portConstraint=eastwest;top=0;left=0;right=0;bottom=0;" vertex="1" parent="_eQ42IoMCjJthv77Kmsl-33">
          <mxGeometry y="190" width="250" height="30" as="geometry" />
        </mxCell>
        <mxCell id="_eQ42IoMCjJthv77Kmsl-50" value="" style="shape=partialRectangle;overflow=hidden;connectable=0;fillColor=none;top=0;left=0;bottom=0;right=0;" vertex="1" parent="_eQ42IoMCjJthv77Kmsl-49">
          <mxGeometry width="30" height="30" as="geometry" />
        </mxCell>
        <mxCell id="_eQ42IoMCjJthv77Kmsl-51" value="PAQUETE_ANCHO_MAX" style="shape=partialRectangle;overflow=hidden;connectable=0;fillColor=none;top=0;left=0;bottom=0;right=0;align=left;spacingLeft=6;" vertex="1" parent="_eQ42IoMCjJthv77Kmsl-49">
          <mxGeometry x="30" width="220" height="30" as="geometry" />
        </mxCell>
        <mxCell id="_eQ42IoMCjJthv77Kmsl-52" value="" style="shape=partialRectangle;collapsible=0;dropTarget=0;pointerEvents=0;fillColor=none;points=[[0,0.5],[1,0.5]];portConstraint=eastwest;top=0;left=0;right=0;bottom=0;" vertex="1" parent="_eQ42IoMCjJthv77Kmsl-33">
          <mxGeometry y="220" width="250" height="30" as="geometry" />
        </mxCell>
        <mxCell id="_eQ42IoMCjJthv77Kmsl-53" value="" style="shape=partialRectangle;overflow=hidden;connectable=0;fillColor=none;top=0;left=0;bottom=0;right=0;" vertex="1" parent="_eQ42IoMCjJthv77Kmsl-52">
          <mxGeometry width="30" height="30" as="geometry" />
        </mxCell>
        <mxCell id="_eQ42IoMCjJthv77Kmsl-54" value="PAQUETE_LARGO_MAX" style="shape=partialRectangle;overflow=hidden;connectable=0;fillColor=none;top=0;left=0;bottom=0;right=0;align=left;spacingLeft=6;" vertex="1" parent="_eQ42IoMCjJthv77Kmsl-52">
          <mxGeometry x="30" width="220" height="30" as="geometry" />
        </mxCell>
        <mxCell id="_eQ42IoMCjJthv77Kmsl-55" value="" style="shape=partialRectangle;collapsible=0;dropTarget=0;pointerEvents=0;fillColor=none;points=[[0,0.5],[1,0.5]];portConstraint=eastwest;top=0;left=0;right=0;bottom=0;" vertex="1" parent="_eQ42IoMCjJthv77Kmsl-33">
          <mxGeometry y="250" width="250" height="30" as="geometry" />
        </mxCell>
        <mxCell id="_eQ42IoMCjJthv77Kmsl-56" value="" style="shape=partialRectangle;overflow=hidden;connectable=0;fillColor=none;top=0;left=0;bottom=0;right=0;" vertex="1" parent="_eQ42IoMCjJthv77Kmsl-55">
          <mxGeometry width="30" height="30" as="geometry" />
        </mxCell>
        <mxCell id="_eQ42IoMCjJthv77Kmsl-57" value="PAQUETE_PRECIO" style="shape=partialRectangle;overflow=hidden;connectable=0;fillColor=none;top=0;left=0;bottom=0;right=0;align=left;spacingLeft=6;" vertex="1" parent="_eQ42IoMCjJthv77Kmsl-55">
          <mxGeometry x="30" width="220" height="30" as="geometry" />
        </mxCell>
        <mxCell id="_eQ42IoMCjJthv77Kmsl-58" value="CHOFER" style="shape=table;startSize=30;container=1;collapsible=1;childLayout=tableLayout;fixedRows=1;rowLines=0;fontStyle=1;align=center;resizeLast=1;" vertex="1" parent="1">
          <mxGeometry x="30" y="380" width="250" height="390" as="geometry" />
        </mxCell>
        <mxCell id="_eQ42IoMCjJthv77Kmsl-59" value="" style="shape=partialRectangle;collapsible=0;dropTarget=0;pointerEvents=0;fillColor=none;points=[[0,0.5],[1,0.5]];portConstraint=eastwest;top=0;left=0;right=0;bottom=1;" vertex="1" parent="_eQ42IoMCjJthv77Kmsl-58">
          <mxGeometry y="30" width="250" height="30" as="geometry" />
        </mxCell>
        <mxCell id="_eQ42IoMCjJthv77Kmsl-60" value="" style="shape=partialRectangle;overflow=hidden;connectable=0;fillColor=none;top=0;left=0;bottom=0;right=0;fontStyle=1;" vertex="1" parent="_eQ42IoMCjJthv77Kmsl-59">
          <mxGeometry width="30" height="30" as="geometry" />
        </mxCell>
        <mxCell id="_eQ42IoMCjJthv77Kmsl-61" value="" style="shape=partialRectangle;overflow=hidden;connectable=0;fillColor=none;top=0;left=0;bottom=0;right=0;align=left;spacingLeft=6;fontStyle=5;" vertex="1" parent="_eQ42IoMCjJthv77Kmsl-59">
          <mxGeometry x="30" width="220" height="30" as="geometry" />
        </mxCell>
        <mxCell id="_eQ42IoMCjJthv77Kmsl-62" value="" style="shape=partialRectangle;collapsible=0;dropTarget=0;pointerEvents=0;fillColor=none;points=[[0,0.5],[1,0.5]];portConstraint=eastwest;top=0;left=0;right=0;bottom=0;" vertex="1" parent="_eQ42IoMCjJthv77Kmsl-58">
          <mxGeometry y="60" width="250" height="30" as="geometry" />
        </mxCell>
        <mxCell id="_eQ42IoMCjJthv77Kmsl-63" value="" style="shape=partialRectangle;overflow=hidden;connectable=0;fillColor=none;top=0;left=0;bottom=0;right=0;" vertex="1" parent="_eQ42IoMCjJthv77Kmsl-62">
          <mxGeometry width="30" height="30" as="geometry" />
        </mxCell>
        <mxCell id="_eQ42IoMCjJthv77Kmsl-64" value="CHOFER_NOMBRE" style="shape=partialRectangle;overflow=hidden;connectable=0;fillColor=none;top=0;left=0;bottom=0;right=0;align=left;spacingLeft=6;" vertex="1" parent="_eQ42IoMCjJthv77Kmsl-62">
          <mxGeometry x="30" width="220" height="30" as="geometry" />
        </mxCell>
        <mxCell id="_eQ42IoMCjJthv77Kmsl-65" value="" style="shape=partialRectangle;collapsible=0;dropTarget=0;pointerEvents=0;fillColor=none;points=[[0,0.5],[1,0.5]];portConstraint=eastwest;top=0;left=0;right=0;bottom=0;" vertex="1" parent="_eQ42IoMCjJthv77Kmsl-58">
          <mxGeometry y="90" width="250" height="30" as="geometry" />
        </mxCell>
        <mxCell id="_eQ42IoMCjJthv77Kmsl-66" value="" style="shape=partialRectangle;overflow=hidden;connectable=0;fillColor=none;top=0;left=0;bottom=0;right=0;" vertex="1" parent="_eQ42IoMCjJthv77Kmsl-65">
          <mxGeometry width="30" height="30" as="geometry" />
        </mxCell>
        <mxCell id="_eQ42IoMCjJthv77Kmsl-67" value="CHOFER_APELLIDO" style="shape=partialRectangle;overflow=hidden;connectable=0;fillColor=none;top=0;left=0;bottom=0;right=0;align=left;spacingLeft=6;" vertex="1" parent="_eQ42IoMCjJthv77Kmsl-65">
          <mxGeometry x="30" width="220" height="30" as="geometry" />
        </mxCell>
        <mxCell id="_eQ42IoMCjJthv77Kmsl-68" value="" style="shape=partialRectangle;collapsible=0;dropTarget=0;pointerEvents=0;fillColor=none;points=[[0,0.5],[1,0.5]];portConstraint=eastwest;top=0;left=0;right=0;bottom=0;" vertex="1" parent="_eQ42IoMCjJthv77Kmsl-58">
          <mxGeometry y="120" width="250" height="30" as="geometry" />
        </mxCell>
        <mxCell id="_eQ42IoMCjJthv77Kmsl-69" value="" style="shape=partialRectangle;overflow=hidden;connectable=0;fillColor=none;top=0;left=0;bottom=0;right=0;" vertex="1" parent="_eQ42IoMCjJthv77Kmsl-68">
          <mxGeometry width="30" height="30" as="geometry" />
        </mxCell>
        <mxCell id="_eQ42IoMCjJthv77Kmsl-70" value="CHOFER_DNI" style="shape=partialRectangle;overflow=hidden;connectable=0;fillColor=none;top=0;left=0;bottom=0;right=0;align=left;spacingLeft=6;" vertex="1" parent="_eQ42IoMCjJthv77Kmsl-68">
          <mxGeometry x="30" width="220" height="30" as="geometry" />
        </mxCell>
        <mxCell id="_eQ42IoMCjJthv77Kmsl-71" value="" style="shape=partialRectangle;collapsible=0;dropTarget=0;pointerEvents=0;fillColor=none;points=[[0,0.5],[1,0.5]];portConstraint=eastwest;top=0;left=0;right=0;bottom=0;" vertex="1" parent="_eQ42IoMCjJthv77Kmsl-58">
          <mxGeometry y="150" width="250" height="40" as="geometry" />
        </mxCell>
        <mxCell id="_eQ42IoMCjJthv77Kmsl-72" value="" style="shape=partialRectangle;overflow=hidden;connectable=0;fillColor=none;top=0;left=0;bottom=0;right=0;" vertex="1" parent="_eQ42IoMCjJthv77Kmsl-71">
          <mxGeometry width="30" height="40" as="geometry" />
        </mxCell>
        <mxCell id="_eQ42IoMCjJthv77Kmsl-73" value="CHOFER_DIRECCION" style="shape=partialRectangle;overflow=hidden;connectable=0;fillColor=none;top=0;left=0;bottom=0;right=0;align=left;spacingLeft=6;" vertex="1" parent="_eQ42IoMCjJthv77Kmsl-71">
          <mxGeometry x="30" width="220" height="40" as="geometry" />
        </mxCell>
        <mxCell id="_eQ42IoMCjJthv77Kmsl-99" value="" style="shape=partialRectangle;collapsible=0;dropTarget=0;pointerEvents=0;fillColor=none;points=[[0,0.5],[1,0.5]];portConstraint=eastwest;top=0;left=0;right=0;bottom=0;" vertex="1" parent="_eQ42IoMCjJthv77Kmsl-58">
          <mxGeometry y="190" width="250" height="40" as="geometry" />
        </mxCell>
        <mxCell id="_eQ42IoMCjJthv77Kmsl-100" value="" style="shape=partialRectangle;overflow=hidden;connectable=0;fillColor=none;top=0;left=0;bottom=0;right=0;" vertex="1" parent="_eQ42IoMCjJthv77Kmsl-99">
          <mxGeometry width="30" height="40" as="geometry" />
        </mxCell>
        <mxCell id="_eQ42IoMCjJthv77Kmsl-101" value="CHOFER_TELEFONO" style="shape=partialRectangle;overflow=hidden;connectable=0;fillColor=none;top=0;left=0;bottom=0;right=0;align=left;spacingLeft=6;" vertex="1" parent="_eQ42IoMCjJthv77Kmsl-99">
          <mxGeometry x="30" width="220" height="40" as="geometry" />
        </mxCell>
        <mxCell id="_eQ42IoMCjJthv77Kmsl-102" value="" style="shape=partialRectangle;collapsible=0;dropTarget=0;pointerEvents=0;fillColor=none;points=[[0,0.5],[1,0.5]];portConstraint=eastwest;top=0;left=0;right=0;bottom=0;" vertex="1" parent="_eQ42IoMCjJthv77Kmsl-58">
          <mxGeometry y="230" width="250" height="40" as="geometry" />
        </mxCell>
        <mxCell id="_eQ42IoMCjJthv77Kmsl-103" value="" style="shape=partialRectangle;overflow=hidden;connectable=0;fillColor=none;top=0;left=0;bottom=0;right=0;" vertex="1" parent="_eQ42IoMCjJthv77Kmsl-102">
          <mxGeometry width="30" height="40" as="geometry" />
        </mxCell>
        <mxCell id="_eQ42IoMCjJthv77Kmsl-104" value="CHOFER_MAIL" style="shape=partialRectangle;overflow=hidden;connectable=0;fillColor=none;top=0;left=0;bottom=0;right=0;align=left;spacingLeft=6;" vertex="1" parent="_eQ42IoMCjJthv77Kmsl-102">
          <mxGeometry x="30" width="220" height="40" as="geometry" />
        </mxCell>
        <mxCell id="_eQ42IoMCjJthv77Kmsl-105" value="" style="shape=partialRectangle;collapsible=0;dropTarget=0;pointerEvents=0;fillColor=none;points=[[0,0.5],[1,0.5]];portConstraint=eastwest;top=0;left=0;right=0;bottom=0;" vertex="1" parent="_eQ42IoMCjJthv77Kmsl-58">
          <mxGeometry y="270" width="250" height="40" as="geometry" />
        </mxCell>
        <mxCell id="_eQ42IoMCjJthv77Kmsl-106" value="" style="shape=partialRectangle;overflow=hidden;connectable=0;fillColor=none;top=0;left=0;bottom=0;right=0;" vertex="1" parent="_eQ42IoMCjJthv77Kmsl-105">
          <mxGeometry width="30" height="40" as="geometry" />
        </mxCell>
        <mxCell id="_eQ42IoMCjJthv77Kmsl-107" value="CHOFER_FECHA_NAC" style="shape=partialRectangle;overflow=hidden;connectable=0;fillColor=none;top=0;left=0;bottom=0;right=0;align=left;spacingLeft=6;" vertex="1" parent="_eQ42IoMCjJthv77Kmsl-105">
          <mxGeometry x="30" width="220" height="40" as="geometry" />
        </mxCell>
        <mxCell id="_eQ42IoMCjJthv77Kmsl-108" value="" style="shape=partialRectangle;collapsible=0;dropTarget=0;pointerEvents=0;fillColor=none;points=[[0,0.5],[1,0.5]];portConstraint=eastwest;top=0;left=0;right=0;bottom=0;" vertex="1" parent="_eQ42IoMCjJthv77Kmsl-58">
          <mxGeometry y="310" width="250" height="40" as="geometry" />
        </mxCell>
        <mxCell id="_eQ42IoMCjJthv77Kmsl-109" value="" style="shape=partialRectangle;overflow=hidden;connectable=0;fillColor=none;top=0;left=0;bottom=0;right=0;" vertex="1" parent="_eQ42IoMCjJthv77Kmsl-108">
          <mxGeometry width="30" height="40" as="geometry" />
        </mxCell>
        <mxCell id="_eQ42IoMCjJthv77Kmsl-110" value="CHOFER_NRO_LEGAJO" style="shape=partialRectangle;overflow=hidden;connectable=0;fillColor=none;top=0;left=0;bottom=0;right=0;align=left;spacingLeft=6;" vertex="1" parent="_eQ42IoMCjJthv77Kmsl-108">
          <mxGeometry x="30" width="220" height="40" as="geometry" />
        </mxCell>
        <mxCell id="_eQ42IoMCjJthv77Kmsl-111" value="" style="shape=partialRectangle;collapsible=0;dropTarget=0;pointerEvents=0;fillColor=none;points=[[0,0.5],[1,0.5]];portConstraint=eastwest;top=0;left=0;right=0;bottom=0;" vertex="1" parent="_eQ42IoMCjJthv77Kmsl-58">
          <mxGeometry y="350" width="250" height="40" as="geometry" />
        </mxCell>
        <mxCell id="_eQ42IoMCjJthv77Kmsl-112" value="" style="shape=partialRectangle;overflow=hidden;connectable=0;fillColor=none;top=0;left=0;bottom=0;right=0;" vertex="1" parent="_eQ42IoMCjJthv77Kmsl-111">
          <mxGeometry width="30" height="40" as="geometry" />
        </mxCell>
        <mxCell id="_eQ42IoMCjJthv77Kmsl-113" value="CHOFER_COSTO_HORA" style="shape=partialRectangle;overflow=hidden;connectable=0;fillColor=none;top=0;left=0;bottom=0;right=0;align=left;spacingLeft=6;" vertex="1" parent="_eQ42IoMCjJthv77Kmsl-111">
          <mxGeometry x="30" width="220" height="40" as="geometry" />
        </mxCell>
        <mxCell id="_eQ42IoMCjJthv77Kmsl-83" value="RECORRIDO" style="shape=table;startSize=20;container=1;collapsible=1;childLayout=tableLayout;fixedRows=1;rowLines=0;fontStyle=1;align=center;resizeLast=1;" vertex="1" parent="1">
          <mxGeometry x="620" y="80" width="250" height="190" as="geometry" />
        </mxCell>
        <mxCell id="_eQ42IoMCjJthv77Kmsl-84" value="" style="shape=partialRectangle;collapsible=0;dropTarget=0;pointerEvents=0;fillColor=none;points=[[0,0.5],[1,0.5]];portConstraint=eastwest;top=0;left=0;right=0;bottom=1;" vertex="1" parent="_eQ42IoMCjJthv77Kmsl-83">
          <mxGeometry y="20" width="250" height="30" as="geometry" />
        </mxCell>
        <mxCell id="_eQ42IoMCjJthv77Kmsl-85" value="" style="shape=partialRectangle;overflow=hidden;connectable=0;fillColor=none;top=0;left=0;bottom=0;right=0;fontStyle=1;" vertex="1" parent="_eQ42IoMCjJthv77Kmsl-84">
          <mxGeometry width="30" height="30" as="geometry" />
        </mxCell>
        <mxCell id="_eQ42IoMCjJthv77Kmsl-86" value="" style="shape=partialRectangle;overflow=hidden;connectable=0;fillColor=none;top=0;left=0;bottom=0;right=0;align=left;spacingLeft=6;fontStyle=5;" vertex="1" parent="_eQ42IoMCjJthv77Kmsl-84">
          <mxGeometry x="30" width="220" height="30" as="geometry" />
        </mxCell>
        <mxCell id="_eQ42IoMCjJthv77Kmsl-87" value="" style="shape=partialRectangle;collapsible=0;dropTarget=0;pointerEvents=0;fillColor=none;points=[[0,0.5],[1,0.5]];portConstraint=eastwest;top=0;left=0;right=0;bottom=0;" vertex="1" parent="_eQ42IoMCjJthv77Kmsl-83">
          <mxGeometry y="50" width="250" height="30" as="geometry" />
        </mxCell>
        <mxCell id="_eQ42IoMCjJthv77Kmsl-88" value="" style="shape=partialRectangle;overflow=hidden;connectable=0;fillColor=none;top=0;left=0;bottom=0;right=0;" vertex="1" parent="_eQ42IoMCjJthv77Kmsl-87">
          <mxGeometry width="30" height="30" as="geometry" />
        </mxCell>
        <mxCell id="_eQ42IoMCjJthv77Kmsl-89" value="RECORRIDO_CIUDAD_ORIGEN" style="shape=partialRectangle;overflow=hidden;connectable=0;fillColor=none;top=0;left=0;bottom=0;right=0;align=left;spacingLeft=6;" vertex="1" parent="_eQ42IoMCjJthv77Kmsl-87">
          <mxGeometry x="30" width="220" height="30" as="geometry" />
        </mxCell>
        <mxCell id="_eQ42IoMCjJthv77Kmsl-90" value="" style="shape=partialRectangle;collapsible=0;dropTarget=0;pointerEvents=0;fillColor=none;points=[[0,0.5],[1,0.5]];portConstraint=eastwest;top=0;left=0;right=0;bottom=0;" vertex="1" parent="_eQ42IoMCjJthv77Kmsl-83">
          <mxGeometry y="80" width="250" height="30" as="geometry" />
        </mxCell>
        <mxCell id="_eQ42IoMCjJthv77Kmsl-91" value="" style="shape=partialRectangle;overflow=hidden;connectable=0;fillColor=none;top=0;left=0;bottom=0;right=0;" vertex="1" parent="_eQ42IoMCjJthv77Kmsl-90">
          <mxGeometry width="30" height="30" as="geometry" />
        </mxCell>
        <mxCell id="_eQ42IoMCjJthv77Kmsl-92" value="RECORRIDO_CIUDAD_DESTINO" style="shape=partialRectangle;overflow=hidden;connectable=0;fillColor=none;top=0;left=0;bottom=0;right=0;align=left;spacingLeft=6;" vertex="1" parent="_eQ42IoMCjJthv77Kmsl-90">
          <mxGeometry x="30" width="220" height="30" as="geometry" />
        </mxCell>
        <mxCell id="_eQ42IoMCjJthv77Kmsl-93" value="" style="shape=partialRectangle;collapsible=0;dropTarget=0;pointerEvents=0;fillColor=none;points=[[0,0.5],[1,0.5]];portConstraint=eastwest;top=0;left=0;right=0;bottom=0;" vertex="1" parent="_eQ42IoMCjJthv77Kmsl-83">
          <mxGeometry y="110" width="250" height="30" as="geometry" />
        </mxCell>
        <mxCell id="_eQ42IoMCjJthv77Kmsl-94" value="" style="shape=partialRectangle;overflow=hidden;connectable=0;fillColor=none;top=0;left=0;bottom=0;right=0;" vertex="1" parent="_eQ42IoMCjJthv77Kmsl-93">
          <mxGeometry width="30" height="30" as="geometry" />
        </mxCell>
        <mxCell id="_eQ42IoMCjJthv77Kmsl-95" value="RECORRIDO_KM" style="shape=partialRectangle;overflow=hidden;connectable=0;fillColor=none;top=0;left=0;bottom=0;right=0;align=left;spacingLeft=6;" vertex="1" parent="_eQ42IoMCjJthv77Kmsl-93">
          <mxGeometry x="30" width="220" height="30" as="geometry" />
        </mxCell>
        <mxCell id="_eQ42IoMCjJthv77Kmsl-96" value="" style="shape=partialRectangle;collapsible=0;dropTarget=0;pointerEvents=0;fillColor=none;points=[[0,0.5],[1,0.5]];portConstraint=eastwest;top=0;left=0;right=0;bottom=0;" vertex="1" parent="_eQ42IoMCjJthv77Kmsl-83">
          <mxGeometry y="140" width="250" height="40" as="geometry" />
        </mxCell>
        <mxCell id="_eQ42IoMCjJthv77Kmsl-97" value="" style="shape=partialRectangle;overflow=hidden;connectable=0;fillColor=none;top=0;left=0;bottom=0;right=0;" vertex="1" parent="_eQ42IoMCjJthv77Kmsl-96">
          <mxGeometry width="30" height="40" as="geometry" />
        </mxCell>
        <mxCell id="_eQ42IoMCjJthv77Kmsl-98" value="RECORRIDO_PRECIO" style="shape=partialRectangle;overflow=hidden;connectable=0;fillColor=none;top=0;left=0;bottom=0;right=0;align=left;spacingLeft=6;" vertex="1" parent="_eQ42IoMCjJthv77Kmsl-96">
          <mxGeometry x="30" width="220" height="40" as="geometry" />
        </mxCell>
      </root>
    </mxGraphModel>
  </diagram>
</mxfile>
